<?xml version="1.0" standalone="no"?>
<!DOCTYPE svg PUBLIC "-//W3C//DTD SVG 20010904//EN"
 "http://www.w3.org/TR/2001/REC-SVG-20010904/DTD/svg10.dtd">
<svg version="1.0" xmlns="http://www.w3.org/2000/svg"
 width="260.000000pt" height="260.000000pt" viewBox="0 0 260.000000 260.000000"
 preserveAspectRatio="xMidYMid meet">
<metadata>
Created by potrace 1.11, written by Peter Selinger 2001-2013
</metadata>
<g transform="translate(0.000000,260.000000) scale(0.100000,-0.100000)"
fill="#000000" stroke="none">
<path d="M553 2510 c-291 -69 -513 -331 -539 -635 l-5 -60 200 0 c111 0 201 0
201 0 1 0 3 18 6 40 8 60 50 139 96 180 137 124 322 118 442 -16 54 -60 78
-127 77 -215 -1 -146 -92 -252 -249 -288 l-57 -13 0 -199 0 -198 42 -8 c104
-17 197 -88 242 -183 69 -144 -5 -331 -159 -404 -114 -54 -276 -23 -350 67
-40 48 -69 113 -77 167 -5 42 -8 45 -37 46 -45 1 -316 1 -349 0 -28 -1 -28 -1
-22 -53 27 -244 148 -439 343 -553 138 -81 263 -116 397 -110 82 3 88 4 165
25 186 50 381 223 464 413 70 158 71 384 1 550 -11 27 -12 36 -2 39 10 4 353
3 382 -1 7 -1 11 -71 10 -203 l0 -203 200 0 200 0 2 175 c0 96 2 189 2 205 l1
31 196 -1 c167 -1 197 2 203 15 6 12 8 349 2 382 0 5 -90 7 -198 6 -174 -1
-197 0 -202 15 -3 9 -6 101 -5 204 l1 188 -196 0 c-108 1 -198 -2 -201 -6 -3
-4 -5 -96 -5 -203 l0 -196 -80 0 c-112 -1 -308 -1 -318 -1 -4 1 -1 14 7 30 25
48 57 188 60 260 10 265 -159 535 -412 661 -139 69 -320 88 -479 50z m811
-1215 c1 -96 -1 -175 -4 -175 -3 0 -20 26 -39 56 -18 31 -47 71 -62 89 -16 18
-29 36 -29 40 0 4 23 35 51 69 29 33 56 71 62 84 6 12 12 20 15 17 3 -2 5 -83
6 -180z"/>
</g>
</svg>
