<svg width="32" height="32" viewBox="0 0 32 32" fill="none" xmlns="http://www.w3.org/2000/svg">
<path fill-rule="evenodd" clip-rule="evenodd" d="M20 12C20 14.2091 18.2091 16 16 16C13.7909 16 12 14.2091 12 12C12 9.79087 13.7909 8.00001 16 8.00001C18.2091 8.00001 20 9.79087 20 12ZM17.3333 12C17.3333 12.7364 16.7364 13.3333 16 13.3333C15.2636 13.3333 14.6667 12.7364 14.6667 12C14.6667 11.2636 15.2636 10.6667 16 10.6667C16.7364 10.6667 17.3333 11.2636 17.3333 12Z" fill="black"/>
<path fill-rule="evenodd" clip-rule="evenodd" d="M25.3333 12C25.3333 16.8415 20.4109 23.7927 17.7156 27.2358C16.6995 28.5339 16 29.3333 16 29.3333C16 29.3333 15.3005 28.5339 14.2844 27.2358C11.5891 23.7927 6.66666 16.8415 6.66666 12C6.66666 6.84535 10.8453 2.66667 16 2.66667C21.1547 2.66667 25.3333 6.84535 25.3333 12ZM22.6667 12C22.6667 13.1116 22.2582 14.6218 21.4447 16.4233C20.6508 18.1811 19.5684 20.0066 18.4479 21.6875C17.5926 22.9704 16.7343 24.1405 16 25.0966C15.2657 24.1405 14.4074 22.9704 13.5521 21.6875C12.4315 20.0066 11.3492 18.1811 10.5553 16.4233C9.74177 14.6218 9.33333 13.1116 9.33333 12C9.33333 8.31811 12.3181 5.33334 16 5.33334C19.6819 5.33334 22.6667 8.31811 22.6667 12Z" fill="black"/>
</svg>
