<svg width="32" height="32" viewBox="0 0 32 32" fill="none" xmlns="http://www.w3.org/2000/svg">
<path d="M13.3333 22.6667C12.597 22.6667 12 23.2636 12 24C12 24.7364 12.597 25.3333 13.3333 25.3333H18.6667C19.4031 25.3333 20 24.7364 20 24C20 23.2636 19.4031 22.6667 18.6667 22.6667H13.3333Z" fill="black"/>
<path fill-rule="evenodd" clip-rule="evenodd" d="M22.6667 2.66667H9.33334C7.86058 2.66667 6.66667 3.86058 6.66667 5.33334V26.6667C6.66667 28.1394 7.86058 29.3333 9.33334 29.3333H22.6667C24.1394 29.3333 25.3333 28.1394 25.3333 26.6667V5.33334C25.3333 3.86058 24.1394 2.66667 22.6667 2.66667ZM22.6667 5.33334H20C20 6.8061 18.8061 8.00001 17.3333 8.00001H14.6667C13.1939 8.00001 12 6.8061 12 5.33334H9.33334L9.33334 26.6667H22.6667V5.33334Z" fill="black"/>
</svg>
