<svg width="32" height="32" viewBox="0 0 32 32" fill="none" xmlns="http://www.w3.org/2000/svg">
<path d="M22.6667 14.6667C22.6667 15.403 22.0697 16 21.3333 16C20.597 16 20 15.403 20 14.6667C20 13.9303 20.597 13.3333 21.3333 13.3333C22.0697 13.3333 22.6667 13.9303 22.6667 14.6667Z" fill="black"/>
<path d="M14.6667 21.6667C13.9303 21.6667 13.3333 22.2636 13.3333 23C13.3333 23.7364 13.9303 24.3333 14.6667 24.3333H17.3333C18.0697 24.3333 18.6667 23.7364 18.6667 23C18.6667 22.2636 18.0697 21.6667 17.3333 21.6667H14.6667Z" fill="black"/>
<path fill-rule="evenodd" clip-rule="evenodd" d="M9.33333 5.33332V7.99999H6.66667C5.19391 7.99999 4 9.1939 4 10.6667V20C4 21.4727 5.19391 22.6667 6.66667 22.6667H8V26.6667C8 28.1394 9.19391 29.3333 10.6667 29.3333H21.3333C22.8061 29.3333 24 28.1394 24 26.6667V22.6667H25.3333C26.8061 22.6667 28 21.4727 28 20V10.6667C28 9.1939 26.8061 7.99999 25.3333 7.99999H22.6667V5.33332C22.6667 3.86056 21.4728 2.66666 20 2.66666H12C10.5272 2.66666 9.33333 3.86056 9.33333 5.33332ZM20 5.33332H12V7.99999H20V5.33332ZM24 20H25.3333V10.6667H6.66667V20H8V17.6667H24V20ZM10.6667 20.3333H21.3333V26.6667H10.6667V20.3333Z" fill="black"/>
</svg>
