<svg width="32" height="32" viewBox="0 0 32 32" fill="none" xmlns="http://www.w3.org/2000/svg">
<path fill-rule="evenodd" clip-rule="evenodd" d="M28.9428 3.05718C29.2828 3.3971 29.4134 3.89367 29.2847 4.35685L22.6181 28.3569C22.4814 28.8489 22.0756 29.2197 21.5733 29.3116C21.0709 29.4035 20.5602 29.2003 20.2582 28.7885L13.0461 18.9539L3.21156 11.7419C2.79972 11.4398 2.59658 10.9291 2.68846 10.4268C2.78035 9.9244 3.15111 9.51865 3.64318 9.38196L27.6432 2.7153C28.1064 2.58664 28.6029 2.71727 28.9428 3.05718ZM15.7517 18.1339L20.784 24.9961L25.3587 8.5269L15.7517 18.1339ZM23.4731 6.64128L13.8661 16.2483L7.00391 11.2161L23.4731 6.64128Z" fill="black"/>
</svg>
